<svg width="404" height="304" viewBox="0 0 404 304" fill="none" xmlns="http://www.w3.org/2000/svg">
<path d="M161.395 197.766V197.37H162.28L161.395 197.766ZM163.873 196.019H161.395V193.278L163.873 196.019ZM160.075 193.791C159.961 193.004 159.842 192.216 159.728 191.433L160.075 191.816V193.791Z" fill="#F6AF36"/>
<path d="M162.28 197.369H161.396V196.019H163.873L164.282 196.469L162.28 197.369Z" fill="#FBCB68"/>
<path d="M160.704 198.076C160.493 196.64 160.286 195.214 160.075 193.791V191.816L161.395 193.278V196.019V197.37V197.766L160.704 198.076Z" fill="#FBCB68"/>
<path d="M361.374 191.465C361.15 191.199 360.925 190.934 360.692 190.668L319.238 176.806V174.209L364.828 158.634C364.115 169.591 362.962 180.546 361.374 191.465ZM317.918 176.365L315.397 175.523L317.918 174.659V176.365Z" fill="#F6AF36"/>
<path d="M319.238 176.806L317.918 176.365V174.659L319.238 174.209V176.806Z" fill="#FBCB68"/>
<path d="M187.194 186.189L161.396 184.439V143.698L212.688 173.241V174.748L187.194 186.189ZM160.076 184.349L158.663 184.25C156.512 169.816 154.4 156.058 152.358 143.414H160.076V184.349ZM214.008 174.159V174.001L214.162 174.087L214.008 174.159ZM158.558 142.063H152.138C149.885 128.141 147.711 115.608 145.661 105.031L160.076 113.272V139.013L155.755 140.45L158.558 142.063ZM161.396 138.573V114.024L188.545 129.538L161.396 138.573Z" fill="#D0A430"/>
<path d="M160.076 143.414H152.358C152.288 142.963 152.213 142.512 152.138 142.063H158.558L160.076 142.937V143.414Z" fill="#FBCB68"/>
<path d="M161.395 184.438L160.075 184.348V142.937L161.395 143.698V184.438ZM160.075 139.013V113.272L161.395 114.024V138.573L160.075 139.013Z" fill="#FBCB68"/>
<path d="M212.688 174.748V173.24L214.009 174.001V174.158L212.688 174.748Z" fill="#FBCB68"/>
<path d="M347.975 251.212C347.979 251.203 347.979 251.194 347.984 251.185H348.002L347.975 251.212ZM349.225 249.835H348.393C349.018 247.773 349.63 245.698 350.219 243.628L359.565 238.425L349.225 249.835Z" fill="#F6A62C"/>
<path d="M348.002 251.186H347.984C348.12 250.735 348.257 250.29 348.393 249.835H349.225L348.002 251.186Z" fill="#FAC45A"/>
<path d="M262.788 303.021C262.788 303.021 239.542 294.753 214.008 285.503V279.643L259.259 295.819L261.794 292.826L265.301 290.877V301.549L262.788 303.021ZM266.621 300.779V290.144L317.917 261.6V270.759L266.621 300.779ZM212.688 285.022C195.695 278.86 177.852 272.321 165.294 267.523C167.028 267.01 168.757 266.488 170.486 265.961C170.394 265.299 170.297 264.642 170.205 263.981L212.688 279.171V285.022ZM319.238 269.989V260.866L336.636 251.185H347.984C347.979 251.194 347.979 251.203 347.975 251.212L344.195 255.38L319.238 269.989ZM348.393 249.835H339.065L350.219 243.628C349.629 245.699 349.018 247.773 348.393 249.835Z" fill="#D0A430"/>
<path d="M347.984 251.186H336.636L339.065 249.835H348.393C348.256 250.29 348.12 250.735 347.984 251.186Z" fill="#F8B649"/>
<path d="M214.009 285.504C213.569 285.342 213.133 285.184 212.688 285.022V279.171L214.009 279.644V285.504Z" fill="#F8B649"/>
<path d="M317.918 270.76V261.601L319.238 260.867V269.99L317.918 270.76Z" fill="#F8B649"/>
<path d="M143.531 205.781L255.563 155.511L360.691 190.668L262.955 246.774L143.531 205.781Z" fill="#192545"/>
<path d="M175.432 204.319L175.788 205.142L256.21 169.055L330.027 193.742L261.684 232.975L175.714 203.468L175.432 204.319L175.155 205.174L261.494 234.807C261.732 234.888 261.992 234.865 262.207 234.739L332.636 194.309C332.944 194.133 333.116 193.791 333.085 193.436C333.05 193.08 332.812 192.779 332.482 192.666L256.434 167.237C256.227 167.169 256.007 167.178 255.809 167.268L175.08 203.495C174.745 203.644 174.539 203.986 174.556 204.359C174.57 204.733 174.807 205.052 175.155 205.174L175.432 204.319Z" fill="#F7FCFD"/>
<path d="M261.794 292.826L361.73 237.223C361.73 237.223 384.646 218.136 360.691 190.667L258.01 249.565L261.794 292.826Z" fill="#192545"/>
<path d="M145.397 206.425C145.397 206.425 155.671 220.503 152.943 233.798C150.215 247.098 143.672 251.374 143.672 251.374L261.794 292.826C261.794 292.826 272.974 285.233 273.48 272.051C273.986 258.868 262.955 246.774 262.955 246.774L145.397 206.425Z" fill="#F7FCFD"/>
<path d="M143.672 251.374L141.318 253.651L259.259 295.819L261.793 292.826L143.672 251.374Z" fill="#192545"/>
<path d="M259.26 295.819L361.73 237.224L261.794 292.826L259.26 295.819Z" fill="#192545"/>
<path d="M177.214 238.556L249.755 259.647L228.062 265.457L177.214 238.556Z" fill="#D9DFDC"/>
<path d="M177.214 238.556L174.165 252.423L182.428 250.159L188.43 257.257L194.291 243.52L177.214 238.556Z" fill="#F6BF0D"/>
<path d="M165.29 196.019H163.873L161.396 193.278V184.439L187.194 186.189L165.29 196.019ZM160.076 191.815L159.728 191.433C159.372 189.02 159.015 186.626 158.663 184.25L160.076 184.349V191.815Z" fill="#F39421"/>
<path d="M164.282 196.469L163.873 196.019H165.29L164.282 196.469Z" fill="#F8B649"/>
<path d="M161.395 193.278L160.075 191.816V184.349L161.395 184.439V193.278Z" fill="#F8B649"/>
<path d="M262.907 246.757L248.307 241.747L214.901 230.279L172.163 205.188L164.282 196.47L165.29 196.019L187.194 186.19L210.162 187.752L175.08 203.495C174.746 203.644 174.539 203.986 174.556 204.359C174.57 204.733 174.807 205.053 175.155 205.174L261.494 234.807C261.587 234.839 261.679 234.857 261.776 234.857C261.926 234.857 262.075 234.816 262.207 234.74L329.882 195.893L349.286 197.212L262.907 246.757ZM261.684 232.975L177.874 204.206L213.968 188.013L241.601 189.889L253.416 196.695L268.068 191.69L326.665 195.673L261.684 232.975Z" fill="#131A2B"/>
<path d="M261.776 234.856C261.679 234.856 261.587 234.838 261.494 234.807L175.155 205.174C174.807 205.052 174.57 204.733 174.556 204.359C174.539 203.986 174.745 203.644 175.08 203.495L210.162 187.751L213.968 188.012L177.874 204.206L261.684 232.975L326.665 195.673L329.881 195.893L262.207 234.739C262.075 234.816 261.926 234.856 261.776 234.856Z" fill="#F3FBFC"/>
<path d="M264.733 248.953C263.673 247.562 262.955 246.775 262.955 246.775L262.907 246.757L349.286 197.212L356.569 197.707C356.569 197.707 366.777 208.955 367.912 210.503C368.827 211.754 293.734 238.633 264.733 248.953Z" fill="#131A2B"/>
<path d="M253.504 252.94L214.902 230.279L248.308 241.747L262.907 246.756L262.956 246.774C262.956 246.774 263.673 247.562 264.733 248.953C257.803 251.419 253.504 252.94 253.504 252.94Z" fill="#F3FBFC"/>
<path d="M372.897 155.877L260.931 105.445L155.755 140.45L253.416 196.694L372.897 155.877Z" fill="#0081C9"/>
<path d="M340.996 154.368L341.793 152.514L261.116 116.171C260.668 115.968 260.17 115.946 259.704 116.099L183.625 141.421C182.873 141.67 182.345 142.344 182.266 143.146C182.191 143.949 182.578 144.716 183.265 145.111L253.64 185.645C254.129 185.924 254.71 185.982 255.242 185.798L341.621 156.289C342.4 156.023 342.937 155.298 342.972 154.461C343.012 153.625 342.541 152.852 341.793 152.514L340.996 154.368L340.367 152.446L254.82 181.671L189.139 143.845L260.21 120.19L340.196 156.221L340.996 154.368Z" fill="#F7FCFD"/>
<path d="M254.512 242.751L154.655 187.004C154.655 187.004 131.765 167.88 155.755 140.45L258.357 199.494L254.512 242.751Z" fill="#0081C9"/>
<path d="M371.032 156.515C371.032 156.515 360.736 170.581 363.446 183.881C366.157 197.185 372.691 201.47 372.691 201.47L254.512 242.751C254.512 242.751 243.344 235.14 242.856 221.957C242.367 208.775 253.416 196.694 253.416 196.694L371.032 156.515Z" fill="#F7FCFD"/>
<path d="M372.691 201.469L375.045 203.751L257.046 245.748L254.512 242.751L372.691 201.469Z" fill="#0081C9"/>
<path d="M257.046 245.748L154.654 187.004L254.511 242.751L257.046 245.748Z" fill="#0081C9"/>
<path d="M339.166 188.601L266.595 209.589L288.283 215.431L339.166 188.601Z" fill="#D9DFDC"/>
<path d="M339.166 188.602L342.198 202.473L333.934 200.2L327.928 207.289L322.085 193.539L339.166 188.602Z" fill="#392B7E"/>
<path d="M262.943 27.7084C262.943 27.7084 269.165 81.5557 273.257 83.9457C277.353 86.3401 331.162 75.5697 334.089 72.5812C337.015 69.5882 331.818 17.262 328.549 15.1467C324.166 12.3067 262.402 24.4138 262.943 27.7084Z" fill="#192545"/>
<path d="M285.797 15.0604C283.482 18.6611 284.248 23.8414 287.156 26.9605C290.065 30.0795 294.707 31.1687 298.817 30.2101C306.411 28.4322 310.517 19.3182 304.651 13.0441C300.15 8.22826 289.255 9.682 285.797 15.0604Z" fill="#0081C9"/>
<path d="M182.679 29.0443C182.679 29.0443 169.888 65.2531 171.745 68.1066C173.597 70.9556 211.113 81.6225 213.898 80.6728C216.684 79.7276 229.655 44.8151 228.238 42.4071C226.337 39.1801 183.357 26.7759 182.679 29.0443Z" fill="#192545"/>
<path d="M201.116 28.4505C198.528 29.9808 197.406 33.5184 198.282 36.4439C199.162 39.3739 201.771 41.5748 204.675 42.2994C210.052 43.6451 215.491 39.1939 213.718 33.3023C212.354 28.779 204.983 26.1596 201.116 28.4505Z" fill="white"/>
<path d="M28.1198 115.046C28.1198 115.046 32.4451 110.424 35.2744 108.497C38.1037 106.566 126.546 84.193 130.128 84.193C133.71 84.193 141.516 85.8133 141.516 85.8133L28.1198 115.046Z" fill="#1F1E21"/>
<path d="M170.486 265.961C134.528 276.925 98.4516 284.923 62.19 288.249C56.0254 278.005 40.6206 183.241 28.1198 115.045C29.123 114.69 30.1261 114.339 31.1294 113.988C68.0818 101.079 104.889 91.4433 141.516 85.8128C148.116 112.417 156.551 168.906 165.224 229.23C166.971 241.387 168.731 253.706 170.486 265.961Z" fill="#0081C9"/>
<path d="M102.667 105.243L102.311 105.095L102.597 105.36C102.614 105.338 102.641 105.306 102.667 105.243L102.311 105.095L102.597 105.36L102.381 105.162L102.561 105.396L102.597 105.36L102.381 105.162L102.561 105.396L102.504 105.32L102.553 105.401L102.561 105.396L102.504 105.32L102.553 105.401C102.562 105.396 102.61 105.369 102.68 105.338C102.971 105.207 103.6 104.982 104.462 104.703C107.494 103.731 113.474 102.066 119.418 100.648C122.389 99.9367 125.35 99.2886 127.933 98.8205C130.507 98.3525 132.711 98.0599 134.124 98.0599C134.639 98.0599 135.048 98.1004 135.303 98.1724C135.431 98.2039 135.519 98.2444 135.558 98.2714L135.585 98.2984L135.624 98.2624L135.58 98.2805L135.585 98.2984L135.624 98.2624L135.58 98.2805C135.629 98.42 135.712 98.726 135.813 99.1491C136.201 100.747 136.883 104.059 137.688 108.115C138.898 114.2 140.381 121.964 141.56 128.207C142.15 131.329 142.664 134.071 143.03 136.032C143.214 137.013 143.36 137.798 143.461 138.339C143.562 138.879 143.619 139.173 143.619 139.174C143.663 139.418 143.892 139.579 144.134 139.532C144.372 139.486 144.526 139.25 144.482 139.006C144.482 139.005 142.704 129.451 140.808 119.551C139.862 114.605 138.885 109.568 138.084 105.599C137.683 103.609 137.327 101.89 137.041 100.58C136.9 99.9232 136.773 99.3696 136.667 98.9331C136.561 98.4965 136.478 98.1859 136.407 97.9789C136.337 97.7764 136.196 97.6233 136.042 97.5198C135.809 97.3668 135.541 97.2903 135.224 97.2363C134.907 97.1823 134.542 97.1597 134.124 97.1597C132.289 97.1642 129.424 97.5963 126.111 98.2534C121.143 99.2346 115.199 100.72 110.469 102.016C108.101 102.664 106.042 103.263 104.555 103.731C103.811 103.965 103.213 104.167 102.786 104.329C102.57 104.406 102.399 104.478 102.267 104.541C102.196 104.573 102.139 104.604 102.082 104.64L101.985 104.717C101.95 104.748 101.901 104.793 101.853 104.901C101.761 105.131 101.871 105.396 102.095 105.491C102.319 105.585 102.575 105.473 102.667 105.243Z" fill="#192545"/>
<path d="M144.943 144.994L147.922 160.127C147.97 160.37 148.199 160.528 148.437 160.479C148.679 160.43 148.833 160.193 148.784 159.949L145.806 144.817C145.757 144.573 145.528 144.415 145.291 144.464C145.049 144.513 144.895 144.75 144.943 144.994Z" fill="#192545"/>
<path d="M131.29 130.097C130.269 132.802 128.597 135.279 126.533 137.27C121.68 141.966 113.821 144.028 108.176 140.37C104.066 137.701 101.932 132.458 102.258 127.483C102.583 122.535 105.091 117.913 108.528 114.402L108.563 114.362C112.052 110.797 118.679 107.093 123.607 109.816C128.038 112.265 132.047 118.237 132.364 123.305C132.509 125.624 132.104 127.934 131.29 130.097Z" fill="#235B76"/>
<path d="M114.763 142.24C112.444 142.24 110.169 141.662 108.176 140.369C104.339 137.877 102.222 133.142 102.222 128.476C102.222 128.144 102.235 127.813 102.257 127.483C102.583 122.534 105.091 117.912 108.528 114.402C109.17 117.251 109.593 119.888 111.898 122.516C115.59 126.722 121.13 128.916 126.643 129.286C128.192 129.387 129.934 129.453 131.29 130.096C130.269 132.801 128.597 135.278 126.533 137.27C123.396 140.305 119 142.24 114.763 142.24Z" fill="black"/>
<path d="M82.1311 143.924C81.1102 146.629 79.4426 149.106 77.3789 151.096C72.5255 155.792 64.6625 157.854 59.0171 154.196C54.9073 151.527 52.7733 146.284 53.0989 141.309C53.4289 136.361 55.9326 131.741 59.3691 128.23L59.4043 128.189C62.898 124.623 69.5246 120.919 74.4483 123.642C78.8837 126.092 82.8878 132.065 83.2046 137.131C83.3498 139.451 82.9495 141.761 82.1311 143.924Z" fill="#0081C9"/>
<path d="M65.6043 156.067C63.2854 156.067 61.015 155.489 59.0173 154.196C55.1804 151.704 53.0684 146.97 53.0684 142.304C53.0684 141.971 53.0771 141.64 53.0991 141.309C53.4291 136.361 55.9328 131.741 59.3693 128.23C60.0162 131.077 60.4341 133.716 62.7442 136.345C66.4315 140.55 71.9757 142.743 77.4847 143.113C79.0379 143.215 80.7805 143.28 82.1313 143.924C81.1105 146.629 79.4428 149.106 77.3792 151.096C74.2374 154.132 69.846 156.067 65.6043 156.067Z" fill="#0081C9"/>
<path d="M141.978 183.493C140.957 186.198 139.289 188.678 137.226 190.668C132.372 195.362 124.514 197.428 118.868 193.769C114.758 191.1 112.62 185.856 112.95 180.883C113.276 175.932 115.779 171.314 119.22 167.804L119.251 167.763C122.745 164.194 129.371 160.492 134.3 163.213C138.73 165.666 142.739 171.638 143.056 176.702C143.197 179.019 142.796 181.333 141.978 183.493Z" fill="#F7FCFD"/>
<path d="M125.451 195.642C123.136 195.642 120.861 195.061 118.868 193.769C115.031 191.276 112.915 186.541 112.915 181.874C112.915 181.545 112.928 181.212 112.95 180.884C113.276 175.933 115.779 171.315 119.22 167.804C119.863 170.649 120.285 173.291 122.591 175.919C126.282 180.123 131.822 182.315 137.336 182.684C138.884 182.787 140.627 182.85 141.978 183.494C140.957 186.199 139.289 188.679 137.226 190.668C134.088 193.706 129.693 195.642 125.451 195.642Z" fill="#F5FCFC"/>
<path d="M92.8236 197.32C91.8027 200.03 90.135 202.505 88.0669 204.495C83.2136 209.193 75.355 211.25 69.7096 207.596C65.5998 204.927 63.4658 199.683 63.7914 194.71C64.117 189.759 66.6251 185.141 70.0616 181.631L70.0968 181.59C73.5861 178.021 80.2127 174.321 85.1408 177.04C89.5762 179.493 93.5803 185.465 93.8971 190.529C94.0423 192.851 93.642 195.16 92.8236 197.32Z" fill="#192545"/>
<path d="M152.67 236.895C151.65 239.6 149.982 242.076 147.918 244.065C143.065 248.764 135.206 250.825 129.556 247.166C125.447 244.497 123.313 239.254 123.638 234.28C123.968 229.329 126.472 224.712 129.908 221.201L129.944 221.16C133.437 217.596 140.064 213.892 144.992 216.61C149.423 219.063 153.427 225.036 153.744 230.099C153.889 232.421 153.489 234.73 152.67 236.895Z" fill="#39847B"/>
<path d="M130.885 225.09C129.886 224.608 128.874 224.095 127.871 223.564C128.5 222.731 129.186 221.939 129.908 221.201C130.212 222.538 130.467 223.825 130.885 225.09Z" fill="#DFE58D"/>
<path d="M103.516 250.721C102.495 253.426 100.823 255.902 98.7594 257.891C93.9061 262.59 86.0475 264.651 80.4021 260.992C76.2923 258.323 74.1583 253.08 74.4839 248.106C74.8095 243.155 77.3176 238.538 80.7541 235.027L80.7893 234.987C84.2786 231.417 90.9052 227.718 95.8333 230.436C100.264 232.889 104.273 238.862 104.59 243.925C104.73 246.248 104.33 248.556 103.516 250.721Z" fill="#F8A343"/>
<path d="M62.8719 219.46C61.9567 220.625 60.9843 222.02 61.2967 223.483C61.5123 224.478 62.2779 225.23 63.0128 225.918C63.6992 226.562 64.456 227.228 65.38 227.358C66.2072 227.475 67.0301 227.138 67.7517 226.71C69.3621 225.761 70.7438 224.226 71.0782 222.354C71.395 220.589 70.2157 217.569 68.5525 216.696C66.3084 215.517 64.1304 217.862 62.8719 219.46Z" fill="white"/>
<path d="M100.511 149.992C99.9429 150.714 99.3401 151.576 99.5381 152.48C99.6701 153.094 100.141 153.561 100.594 153.984C101.021 154.382 101.487 154.795 102.059 154.875C102.57 154.947 103.08 154.739 103.525 154.475C104.523 153.887 105.377 152.939 105.584 151.782C105.778 150.692 105.047 148.823 104.022 148.284C102.636 147.554 101.289 149.003 100.511 149.992Z" fill="#0081C9"/>
<path d="M149.18 203.72C148.987 203.963 148.78 204.26 148.846 204.566C148.894 204.773 149.053 204.935 149.207 205.079C149.352 205.214 149.515 205.354 149.708 205.381C149.88 205.408 150.056 205.336 150.206 205.246C150.545 205.043 150.839 204.724 150.91 204.328C150.976 203.959 150.725 203.32 150.377 203.135C149.902 202.888 149.444 203.383 149.18 203.72Z" fill="white"/>
<path d="M116.756 265.458C116.562 265.705 116.356 265.998 116.422 266.304C116.47 266.515 116.628 266.673 116.787 266.817C116.932 266.952 117.09 267.096 117.284 267.123C117.46 267.145 117.632 267.073 117.786 266.983C118.124 266.785 118.415 266.461 118.485 266.07C118.551 265.696 118.3 265.061 117.953 264.877C117.482 264.629 117.02 265.12 116.756 265.458Z" fill="white"/>
<path d="M62.19 288.249C60.6808 285.738 58.6127 278.145 56.1707 267.109C55.7395 265.174 55.2994 263.13 54.8506 260.992C47.388 225.589 37.0168 163.586 28.1198 115.045C29.123 114.69 30.1261 114.339 31.1294 113.988C37.7472 125.017 54.6921 152.098 75.9668 177.426C73.6876 178.488 71.602 180.05 70.0971 181.589L70.0619 181.63C66.6254 185.141 64.1173 189.758 63.7917 194.709C63.7697 195.038 63.7609 195.371 63.7609 195.699C63.7565 200.367 65.8729 205.102 69.7099 207.595C71.7075 208.887 73.978 209.467 76.2969 209.467C80.5342 209.467 84.9299 207.532 88.0672 204.494C90.1353 202.505 91.803 200.029 92.8239 197.32C92.9471 197 93.057 196.672 93.1626 196.343C104.308 207.555 116.101 217.294 127.871 223.564C125.513 226.674 123.898 230.373 123.638 234.28C123.616 234.609 123.607 234.942 123.607 235.275C123.607 239.938 125.719 244.672 129.556 247.166C131.554 248.458 133.824 249.038 136.143 249.038C140.385 249.038 144.781 247.103 147.918 244.065C149.982 242.075 151.649 239.6 152.67 236.895C153.387 235 153.783 232.993 153.775 230.968C153.788 230.968 153.801 230.968 153.819 230.968C157.106 230.968 160.34 230.554 163.521 229.676C164.093 229.518 164.661 229.37 165.224 229.23C166.971 241.387 168.731 253.706 170.486 265.961C168.757 266.488 167.028 267.01 165.294 267.523C163.992 267.91 162.698 268.293 161.396 268.671C160.956 268.797 160.516 268.923 160.076 269.053C143.007 273.973 125.913 278.19 108.783 281.52C108.343 281.606 107.903 281.691 107.463 281.777C92.4014 284.662 77.3133 286.863 62.19 288.249ZM117.689 264.809C117.315 264.809 116.972 265.183 116.756 265.457C116.563 265.705 116.356 265.997 116.422 266.303C116.47 266.515 116.629 266.672 116.787 266.816C116.932 266.951 117.091 267.095 117.284 267.122C117.306 267.127 117.333 267.127 117.355 267.127C117.504 267.127 117.654 267.064 117.786 266.983C118.125 266.785 118.415 266.461 118.485 266.069C118.551 265.696 118.301 265.061 117.953 264.876C117.865 264.827 117.773 264.809 117.689 264.809ZM74.4533 249.101C74.4489 253.764 76.5653 258.499 80.4022 260.992C82.3955 262.284 84.6703 262.865 86.9892 262.865C91.2265 262.865 95.6223 260.929 98.7596 257.891C100.823 255.902 102.495 253.426 103.516 250.722C104.33 248.557 104.731 246.248 104.59 243.925C104.273 238.862 100.264 232.889 95.8335 230.436C94.6411 229.779 93.3563 229.496 92.0318 229.496C87.8869 229.496 83.434 232.282 80.7895 234.987L80.7542 235.027C77.3177 238.538 74.8096 243.156 74.484 248.107C74.462 248.435 74.4533 248.768 74.4533 249.101ZM67.2942 216.376C65.5209 216.376 63.8929 218.163 62.872 219.459C61.9568 220.625 60.9844 222.02 61.2968 223.483C61.5124 224.477 62.2781 225.229 63.0129 225.918C63.6993 226.561 64.4561 227.227 65.3801 227.358C65.4945 227.371 65.6045 227.38 65.7145 227.38C66.4273 227.38 67.127 227.079 67.7518 226.71C69.3623 225.76 70.7439 224.225 71.0783 222.353C71.3951 220.589 70.2159 217.569 68.5526 216.696C68.1302 216.475 67.7078 216.376 67.2942 216.376Z" fill="#4BBFFF"/>
<path d="M92.8233 197.32C91.4725 196.681 89.7256 196.614 88.1767 196.51C82.6633 196.141 77.1236 193.949 73.4318 189.746C71.1262 187.113 70.7038 184.475 70.0613 181.631L70.0966 181.59C71.6014 180.051 73.687 178.489 75.9663 177.427C81.4445 183.948 87.2131 190.358 93.1621 196.344C93.0565 196.672 92.9465 197.001 92.8233 197.32Z" fill="#131E35"/>
<path d="M76.2963 209.468C73.9774 209.468 71.707 208.887 69.7093 207.595C65.8724 205.102 63.756 200.367 63.7604 195.7C63.7604 195.371 63.7691 195.038 63.7911 194.71C64.1168 189.759 66.6248 185.141 70.0614 181.63C70.7038 184.475 71.1262 187.112 73.4318 189.745C77.1236 193.949 82.6633 196.141 88.1767 196.51C89.7256 196.614 91.4725 196.681 92.8233 197.32C91.8025 200.03 90.1348 202.505 88.0667 204.494C84.9294 207.532 80.5337 209.468 76.2963 209.468Z" fill="#131A2A"/>
<path d="M152.67 236.896C151.32 236.252 149.577 236.184 148.024 236.085C142.515 235.712 136.971 233.52 133.283 229.316C132.056 227.921 131.365 226.521 130.885 225.09C138.616 228.812 146.308 230.954 153.775 230.968C153.784 232.993 153.388 235.001 152.67 236.896Z" fill="#DFE58D"/>
<path d="M136.143 249.038C133.824 249.038 131.554 248.458 129.556 247.166C125.719 244.672 123.607 239.938 123.607 235.275C123.607 234.942 123.616 234.609 123.638 234.28C123.898 230.373 125.512 226.674 127.871 223.564C128.874 224.095 129.886 224.608 130.885 225.089C131.365 226.521 132.055 227.92 133.283 229.316C136.97 233.519 142.515 235.711 148.024 236.085C149.577 236.184 151.319 236.251 152.67 236.895C151.649 239.6 149.982 242.075 147.918 244.065C144.781 247.103 140.385 249.038 136.143 249.038Z" fill="#225F5A"/>
<path d="M103.516 250.722C102.161 250.078 100.419 250.011 98.8697 249.912C93.3563 249.538 87.8166 247.346 84.1248 243.142C81.8192 240.514 81.3968 237.872 80.7543 235.027L80.7896 234.987C83.4341 232.282 87.887 229.496 92.0319 229.496C93.3564 229.496 94.6412 229.78 95.8336 230.437C100.265 232.89 104.273 238.862 104.59 243.925C104.731 246.248 104.33 248.557 103.516 250.722Z" fill="#F79435"/>
<path d="M86.9893 262.865C84.6704 262.865 82.3956 262.285 80.4023 260.993C76.5654 258.499 74.449 253.765 74.4534 249.102C74.4534 248.769 74.4621 248.436 74.4841 248.107C74.8098 243.156 77.3178 238.539 80.7543 235.028C81.3968 237.872 81.8192 240.514 84.1248 243.143C87.8166 247.347 93.3563 249.538 98.8697 249.912C100.419 250.011 102.161 250.079 103.516 250.722C102.495 253.427 100.823 255.903 98.7597 257.892C95.6224 260.93 91.2267 262.865 86.9893 262.865Z" fill="#F6832B"/>
<path d="M65.7144 227.381C65.6044 227.381 65.4944 227.372 65.38 227.358C64.456 227.228 63.6992 226.562 63.0128 225.918C62.2779 225.229 61.5123 224.478 61.2967 223.483C60.9843 222.02 61.9567 220.625 62.8719 219.459C63.8927 218.163 65.5208 216.376 67.2941 216.376C67.7077 216.376 68.1301 216.475 68.5525 216.696C70.2157 217.569 71.395 220.589 71.0782 222.353C70.7438 224.226 69.3621 225.761 67.7517 226.71C67.1269 227.079 66.4272 227.381 65.7144 227.381Z" fill="white"/>
<path d="M117.354 267.127C117.332 267.127 117.306 267.127 117.284 267.122C117.09 267.095 116.932 266.951 116.787 266.816C116.628 266.672 116.47 266.515 116.422 266.303C116.356 265.997 116.562 265.705 116.756 265.457C116.972 265.183 117.315 264.809 117.689 264.809C117.772 264.809 117.865 264.827 117.953 264.877C118.3 265.061 118.551 265.696 118.485 266.069C118.415 266.461 118.124 266.785 117.786 266.983C117.654 267.064 117.504 267.127 117.354 267.127Z" fill="white"/>
<path d="M131.145 96.7365L223.244 149.368L229.796 138.957L140.108 78.2383L131.145 96.7365Z" fill="#F57E14"/>
<path d="M133.868 91.0427L225.07 146.499C225.277 146.626 225.545 146.556 225.673 146.342C225.796 146.129 225.726 145.853 225.519 145.725L134.317 90.2686C134.106 90.1426 133.837 90.2101 133.714 90.4261C133.591 90.6377 133.657 90.9167 133.868 91.0427Z" fill="#192545"/>
<path d="M136.988 84.5711L227.183 143.12C227.385 143.252 227.658 143.19 227.79 142.981C227.917 142.771 227.86 142.492 227.653 142.359L137.459 83.8105C137.257 83.68 136.984 83.7385 136.852 83.95C136.724 84.1616 136.786 84.4361 136.988 84.5711Z" fill="#192545"/>
<path d="M134.88 95.7732C130.792 100.445 122.762 101.062 116.778 98.8923C115.339 98.3747 114.014 97.6951 112.897 96.8714C107.361 92.7937 104.356 85.858 103.52 78.9358C103.326 77.329 103.212 75.6592 102.842 74.0929C102.574 72.9452 102.169 71.8561 101.487 70.8974C99.881 68.629 96.0001 67.8594 94.5745 70.2493C96.5545 60.2126 106.279 52.5792 116.294 52.6332C118.63 52.6467 120.931 53.0518 123.131 53.7944C130.035 56.1168 135.936 61.7203 138.668 68.6695C138.796 68.9981 138.919 69.3311 139.034 69.6642C141.801 77.7386 140.657 89.1751 134.88 95.7732Z" fill="white"/>
<path d="M119.005 96.2236C118.534 97.3083 117.737 98.213 116.778 98.8926C115.339 98.375 114.015 97.6954 112.897 96.8718C107.362 92.794 104.356 85.8583 103.52 78.9361C103.327 77.3294 103.212 75.6595 102.843 74.0933C104.304 73.2651 105.549 72.2074 107.41 72.2029C109.659 72.1984 111.859 73.5532 112.906 75.5875C113.988 77.6849 113.843 80.1874 113.865 82.5593C113.892 84.9357 114.222 87.5416 115.933 89.1439C116.659 89.8235 117.579 90.2601 118.261 90.9802C119.537 92.3259 119.744 94.5088 119.005 96.2236Z" fill="#192545"/>
<path d="M138.669 68.6694L138.598 68.6829C137.648 68.7864 136.816 68.0978 135.954 67.6702C133.644 66.5225 130.92 67.2157 128.386 67.6522C125.856 68.0933 122.85 68.0888 121.205 66.0724C120.223 64.8752 119.973 63.1874 120.188 61.6392C120.399 60.0909 121.033 58.6372 121.654 57.2104C122.168 56.0267 122.582 54.8205 123.132 53.7943C130.036 56.1167 135.936 61.7202 138.669 68.6694Z" fill="#0081C9"/>
<path d="M207.456 129.085C207.324 127.052 206.924 124.788 208.112 123.152C209.331 121.482 211.861 121.27 213.656 122.256C215.456 123.242 216.613 125.136 217.357 127.079C218.562 130.24 218.866 133.841 217.748 137.036C216.217 141.407 209.168 146.887 204.895 142.399C203.408 140.835 204.438 138.829 205.247 137.17C206.581 134.438 207.667 132.255 207.456 129.085Z" fill="#192545"/>
<path d="M94.7424 70.4835C95.508 68.1746 96.5817 65.8162 98.0249 63.9169C99.4726 62.0176 101.268 60.5818 103.494 60.0417C104.141 59.8842 104.797 59.8122 105.457 59.8122C107.366 59.8122 109.324 60.4198 111.076 61.3379C116.409 64.1239 120.206 69.8444 120.765 75.9475C120.862 76.9871 120.87 78.0448 120.87 79.116C120.87 79.3816 120.87 79.6426 120.87 79.9082C120.87 81.686 120.892 83.4908 121.319 85.2776C122.133 88.6892 124.435 91.6822 127.488 93.298C129.196 94.2026 131.11 94.6572 133.028 94.6572C134.537 94.6572 136.047 94.3737 137.455 93.8021C137.679 93.7076 137.789 93.4465 137.701 93.217C137.609 92.9874 137.353 92.8749 137.129 92.9649C135.831 93.4915 134.427 93.7571 133.028 93.7571C131.246 93.7571 129.468 93.334 127.889 92.5013C125.073 91.0116 122.921 88.2166 122.173 85.0615C121.777 83.4098 121.75 81.6815 121.75 79.9082C121.75 79.6471 121.75 79.3816 121.75 79.116C121.75 78.0403 121.742 76.9511 121.64 75.8619C121.046 69.4393 117.091 63.4758 111.476 60.5368C109.628 59.5691 107.551 58.912 105.457 58.912C104.735 58.912 104.009 58.9885 103.292 59.164C100.819 59.7626 98.8565 61.3559 97.3296 63.3678C95.8028 65.3796 94.6984 67.8191 93.9064 70.1955C93.8316 70.4295 93.9547 70.6861 94.1835 70.7671C94.4124 70.8436 94.6632 70.7175 94.7424 70.4835Z" fill="#1F1E21"/>
<path d="M104.313 59.9828C106.834 58.0925 109.971 57.0708 113.1 57.0708C113.887 57.0708 114.679 57.1338 115.458 57.2688C119.321 57.926 122.903 60.2393 125.138 63.5294C125.957 64.7266 126.613 66.0589 127.308 67.3956C128.003 68.7323 128.742 70.0691 129.741 71.2483C131.937 73.8362 135.259 75.3125 138.59 75.3125C139.395 75.3125 140.2 75.227 140.992 75.0469C141.23 74.9929 141.379 74.7544 141.327 74.5113C141.274 74.2683 141.041 74.1153 140.803 74.1693C140.077 74.3358 139.333 74.4123 138.59 74.4123C135.514 74.4168 132.416 73.0351 130.405 70.6587C129.481 69.5695 128.773 68.2957 128.082 66.9725C127.396 65.6538 126.727 64.2811 125.864 63.0164C123.484 59.5237 119.709 57.0798 115.603 56.3822C114.772 56.2382 113.936 56.1706 113.1 56.1706C109.782 56.1706 106.473 57.2509 103.793 59.2582C103.6 59.4067 103.556 59.6858 103.701 59.8883C103.842 60.0863 104.119 60.1313 104.313 59.9828Z" fill="#1F1E21"/>
<path d="M218.584 152.424C216.521 152.424 214.452 152.35 212.389 152.188C211.069 152.084 209.709 151.932 208.534 151.304C207.359 150.677 206.391 149.465 206.409 148.108C206.444 145.903 208.807 144.614 210.853 143.91C211.451 143.704 212.054 143.506 212.657 143.318L223.244 149.368L225.057 146.491L225.07 146.499C225.14 146.543 225.215 146.563 225.294 146.563C225.444 146.563 225.589 146.484 225.673 146.342C225.792 146.134 225.73 145.865 225.532 145.734L227.178 143.118L227.182 143.119C227.252 143.167 227.336 143.189 227.415 143.189C227.56 143.189 227.706 143.115 227.789 142.98C227.917 142.771 227.86 142.494 227.653 142.361L228.876 140.423C230.13 140.355 231.389 140.321 232.647 140.321C232.885 140.321 233.122 140.322 233.36 140.324C233.47 140.325 233.575 140.326 233.685 140.326C235.379 140.326 237.003 140.195 238.587 140.063C240.171 139.932 241.711 139.801 243.251 139.801C246.05 139.801 248.831 140.236 251.796 141.896C252.962 142.549 254.172 143.501 254.3 144.854C254.406 146.009 253.644 147.103 252.676 147.707C251.704 148.312 250.56 148.526 249.442 148.728C239.234 150.573 228.916 152.424 218.584 152.424Z" fill="#DFE58D"/>
<path d="M223.244 149.368L212.657 143.318C214.303 142.806 215.962 142.36 217.638 141.981L225.057 146.491L223.244 149.368ZM225.532 145.734C225.528 145.732 225.523 145.728 225.519 145.726L218.906 141.706C220.512 141.376 222.127 141.105 223.755 140.894L227.182 143.119L225.532 145.734ZM227.653 142.36C227.653 142.36 227.653 142.36 227.653 142.359L225.141 140.728C226.381 140.592 227.627 140.49 228.876 140.423L227.653 142.36Z" fill="#EC5F1A"/>
<path d="M225.295 146.562C225.216 146.562 225.141 146.542 225.07 146.499L225.057 146.491L217.639 141.981C218.061 141.885 218.483 141.793 218.906 141.706L225.519 145.725C225.524 145.728 225.528 145.731 225.532 145.734C225.73 145.864 225.792 146.133 225.673 146.342C225.59 146.484 225.444 146.562 225.295 146.562Z" fill="#131A2B"/>
<path d="M227.416 143.189C227.336 143.189 227.253 143.167 227.182 143.12L223.755 140.894C224.217 140.834 224.674 140.778 225.141 140.728L227.653 142.359C227.653 142.36 227.653 142.36 227.653 142.361C227.86 142.495 227.917 142.771 227.79 142.981C227.706 143.116 227.561 143.189 227.416 143.189Z" fill="#131A2B"/>
<path d="M203.136 90.9755C201.631 92.2853 201.741 94.9992 203.254 96.3C204.773 97.6007 207.263 97.3441 208.618 95.8724C212.482 91.6822 206.691 87.879 203.136 90.9755Z" fill="white"/>
</svg>
