<svg width="18" height="20" viewBox="0 0 18 20" fill="none" xmlns="http://www.w3.org/2000/svg">
<path fill-rule="evenodd" clip-rule="evenodd" d="M16.099 7.5976C16.099 7.3216 15.875 7.0976 15.599 7.0976H2.40304C2.12604 7.0976 1.90304 7.3216 1.90304 7.5976C1.90304 8.59459 1.88504 9.52359 1.86804 10.3846C1.79404 14.1336 1.74504 16.6106 3.26004 18.1556C4.33604 19.2526 6.10304 19.7426 8.99004 19.7426C11.88 19.7426 13.65 19.2516 14.729 18.1526C16.251 16.6006 16.203 14.1116 16.132 10.3416C16.116 9.49259 16.099 8.57759 16.099 7.5976Z" fill="#D92D20"/>
<path fill-rule="evenodd" clip-rule="evenodd" d="M17.075 3.77439H12.934C12.893 3.12039 12.712 2.19839 12.061 1.45039C11.373 0.659385 10.343 0.257385 8.99905 0.257385C7.65605 0.257385 6.62605 0.659385 5.93805 1.45039C5.28705 2.19839 5.10505 3.12039 5.06405 3.77439H0.925049C0.511049 3.77439 0.175049 4.11039 0.175049 4.52439C0.175049 4.93839 0.511049 5.27439 0.925049 5.27439H17.075C17.489 5.27439 17.825 4.93839 17.825 4.52439C17.825 4.11039 17.489 3.77439 17.075 3.77439Z" fill="#D92D20"/>
</svg>
